<?xml version="1.0" encoding="utf-8"?>
<!-- Generator: Adobe Illustrator 25.2.3, SVG Export Plug-In . SVG Version: 6.00 Build 0)  -->
<svg version="1.1" id="Vrstva_1" xmlns="http://www.w3.org/2000/svg" xmlns:xlink="http://www.w3.org/1999/xlink" x="0px" y="0px"
	 viewBox="0 0 475.14 261.29" style="enable-background:new 0 0 475.14 261.29;" xml:space="preserve">
<style type="text/css">
	.st0{fill:#F0831C;}
	.st1{fill:#72727E;}
</style>
<path class="st0" d="M117.27,142.07c0,0.77-0.23,1.73-0.36,2.23l-9.72,35.33c-1.14,4.54-4.22,6.68-7.9,6.68
	c-3.77,0-6.9-2.13-7.99-6.72l-7.77-31.16c-0.09-0.27-0.27-0.36-0.45-0.36c-0.18,0-0.36,0.09-0.45,0.36l-7.95,31.11
	c-1.09,4.63-4.09,6.77-7.86,6.77c-3.82,0-6.77-2.13-7.95-6.68l-9.72-35.33c-0.14-0.5-0.36-1.45-0.36-2.23c0-2.5,2.04-4.54,4.54-4.54
	c2,0,3.91,1.32,4.41,3.54c3.09,12.04,6.09,23.84,8.95,36.06c0.04,0.27,0.27,0.45,0.45,0.45c0.18,0,0.36-0.18,0.45-0.45
	c2.64-11.35,5.27-22.62,8.04-33.34c0.95-4.04,4-6.27,7.45-6.27c3.54,0,6.49,2.36,7.45,6.31c2.82,10.9,5.45,22.12,8.08,33.29
	c0.09,0.27,0.27,0.45,0.45,0.45c0.18,0,0.36-0.18,0.45-0.45c2.77-11.99,5.72-23.98,8.81-36.06c0.5-2.23,2.41-3.54,4.41-3.54
	C115.22,137.53,117.27,139.57,117.27,142.07"/>
<path class="st0" d="M134.3,158.6h22.3c0.82,0,1.14-0.32,1.18-1.23c0.5-7.45-4.22-12.35-11.49-12.35
	C138.12,145.02,134.16,150.24,134.3,158.6 M166.27,157.19v2.73c0,3.32-1.77,5.59-5.86,5.59H134.3v1.36
	c0,7.54,5.31,11.58,12.67,11.58c4.04,0,7.13-0.68,9.58-1.82c1.27-0.59,2.22-0.91,3.13-0.91c2.18,0,4.04,1.82,4.04,4.09
	c0,1.5-0.77,3-2.91,4.04c-3.18,1.54-8.08,2.91-14.12,2.91c-12.63,0-20.26-7.99-21.07-19.53c-0.23-3.41-0.18-8.36,0.05-11.22
	c0.91-11.67,9.13-18.89,20.57-18.89C158.37,137.12,166.27,145.2,166.27,157.19"/>
<path class="st0" d="M188.07,148.79v25.62c1.82,1.41,6.86,3.36,10.81,3.36c7.18,0,11.13-3.68,11.76-10.72
	c0.23-2.86,0.14-8.27,0-10.67c-0.5-6.72-3.91-10.49-10.9-10.49C194.8,145.88,189.98,147.61,188.07,148.79 M188.07,125.72v13.99
	c3.04-1.32,7.77-2.59,12.22-2.59c11.67,0,18.44,6.86,19.39,18.12c0.27,3.27,0.27,9.63,0,12.81c-0.91,11.17-8.31,18.71-20.62,18.71
	c-8.63,0-15.94-3.95-18.35-5.68c-1.41-0.91-1.77-1.86-1.77-3.45v-51.91c0-2.63,2-4.72,4.59-4.72
	C186.03,120.99,188.07,123.08,188.07,125.72"/>
<path class="st0" d="M242.48,125.72v31.38h1.41c2,0,3.09-0.36,4.86-2.18l15.58-15.53c1.13-1.23,2.41-1.68,3.59-1.68
	c2.54,0,4.59,2.04,4.59,4.54c0,1.32-0.45,2.41-1.68,3.59l-16.21,15.35l16.81,17.12c1.09,1.09,1.54,2.18,1.54,3.45
	c0,2.5-2.04,4.54-4.54,4.54c-1.27,0-2.5-0.54-3.45-1.54L248.93,168c-1.82-1.86-2.86-2.09-4.86-2.09h-1.59v15.71
	c0,2.63-1.95,4.68-4.54,4.68c-2.45,0-4.54-2.18-4.54-4.68v-55.91c0-2.68,2-4.77,4.54-4.77
	C240.49,120.95,242.48,123.04,242.48,125.72"/>
<path class="st0" d="M319.6,131.03v6.9h12.94c2.36,0,4.4,1.77,4.4,4.36c0,2.27-2.04,4.13-4.4,4.13H319.6v24.3c0,4.54,2,7.4,6.86,7.4
	c2.09,0,4.13-0.41,6.13-1.18c0.68-0.18,1.36-0.36,2-0.32c2.32,0.14,3.91,2,3.91,4.09c0,1.95-1.09,3.27-2.95,4.13
	c-2.45,1.14-6,1.91-9.77,1.91c-10.72,0-15.26-7.04-15.26-15.71v-40.01c0-2.63,1.95-4.77,4.5-4.77
	C317.6,126.26,319.6,128.4,319.6,131.03"/>
<path class="st0" d="M294.35,142.2v39.42c0,2.64-1.91,4.68-4.59,4.68c-2.59,0-4.5-2-4.5-4.68V142.2c0-2.59,1.95-4.68,4.54-4.68
	C292.35,137.53,294.35,139.62,294.35,142.2"/>
<path class="st0" d="M295.03,123.86c0,2.91-2.36,5.36-5.27,5.36c-3,0-5.13-2.45-5.13-5.36c0-2.86,2.13-5.18,5.13-5.18
	C292.67,118.68,295.03,120.99,295.03,123.86"/>
<path class="st1" d="M357.93,131.03v6.9h12.94c2.36,0,4.4,1.77,4.4,4.36c0,2.27-2.04,4.13-4.4,4.13h-12.94v24.3
	c0,4.54,2,7.4,6.86,7.4c2.09,0,4.13-0.41,6.13-1.18c0.68-0.18,1.36-0.36,2-0.32c2.32,0.14,3.91,2,3.91,4.09
	c0,1.95-1.09,3.27-2.95,4.13c-2.45,1.14-6,1.91-9.77,1.91c-10.72,0-15.26-7.04-15.26-15.71v-40.01c0-2.63,1.95-4.77,4.5-4.77
	C355.93,126.26,357.93,128.4,357.93,131.03"/>
<path class="st1" d="M268.44,115.75c-3.47,0-6.29-2.78-6.29-6.19c0-3.41,2.82-6.19,6.29-6.19c3.47,0,6.29,2.78,6.29,6.19
	C274.73,112.97,271.91,115.75,268.44,115.75"/>
<path class="st1" d="M310.34,115.75c-3.47,0-6.29-2.78-6.29-6.19c0-3.41,2.82-6.19,6.29-6.19c3.47,0,6.29,2.78,6.29,6.19
	C316.64,112.97,313.81,115.75,310.34,115.75"/>
<path class="st1" d="M420.02,110.99c-0.15-0.28-0.31-0.55-0.47-0.81l-0.01,0c-2.08-3.69-4.62-7.02-7.6-9.94
	c-5.37-5.25-12.11-8.91-20.04-10.88c-6.18-1.54-13.08-2.05-20.52-1.53c-0.81,0.06-1.61,0.13-2.4,0.21
	c-5.61,0.41-10.73,1.47-14.86,2.7c-3.2,0.85-5.16,1.56-5.33,1.62c-0.25,0.09-0.48,0.2-0.7,0.33c0.43-1.53,0.68-2.59,0.74-2.83
	c4.4-16.54-1.15-37.02-1.39-37.89c-0.56-2.04-2.49-3.37-4.6-3.18c-0.65,0.06-16.01,1.71-34.12,25.29
	c-18.57-4.46-30.23-2.23-35.74-0.38C255,50.48,239.8,48.86,239.16,48.8c-2.1-0.19-4.04,1.15-4.6,3.18c-0.06,0.22-5,25.72-0.46,42.67
	c0.62,2.32,3.02,3.71,5.34,3.08c1.12-0.3,2.07-1.02,2.65-2.03c0.58-1.01,0.74-2.19,0.44-3.31c-2.7-10.07-1.8-26.87-0.52-33.81
	c1.55,0.62,3.17,1.43,4.82,2.41c4.95,2.93,12.64,8.9,21.22,20.66c1.11,1.53,3.08,2.16,4.88,1.58c0.43-0.14,0.83-0.34,1.19-0.6
	c2.11-0.96,13.08-5.16,34.56,0.45c0.14,0.06,0.27,0.11,0.41,0.16c1.8,0.59,3.76-0.05,4.88-1.58c8.58-11.76,16.27-17.72,21.22-20.66
	c1.65-0.98,3.27-1.79,4.83-2.41c1.36,6.82,3.06,19.08,0.38,29.08c-0.01,0.05-0.02,0.09-0.04,0.14c-0.02,0.09-2.18,9.23-5.18,14.28
	c-1.11,1.87-0.66,4.29,1.04,5.64c1.72,1.37,4.18,1.25,5.73-0.27c3.41-3.34,8.68-6.33,14.89-8.4c3.73-0.97,9.22-2.12,15.38-2.54
	c3.64-0.25,7.07-0.22,10.3,0.07c3.67,0.54,7.31,1.32,10.74,2.78l4.2,1.75c3.01,1.52,6.05,3.05,8.41,5.35
	c1.35,1.32,2.59,2.76,3.73,4.32c1.05,1.5,2.08,3.11,2.8,4.42c1.15,2.11,3.79,2.88,5.9,1.71
	C420.39,115.76,421.17,113.11,420.02,110.99"/>
<path class="st1" d="M426.86,139.98c-0.02-2.49-2.05-4.49-4.54-4.49c-0.01,0-0.02,0-0.04,0c-2.51,0.02-4.52,2.07-4.5,4.57
	c0,0.11-0.16,11.18-4.73,24.49c-1.2,3.51-2.6,6.84-4.18,10.01c-0.3-0.01-0.45-0.26-0.54-0.5l-14.35-35.07
	c-0.76-2.02-2.48-3.59-4.85-3.59c-2.88,0-5.1,2.27-5.1,5.05c0,0.86,0.25,1.77,0.61,2.53l18.1,41.74
	c-5.73,7.9-12.95,14.36-21.63,19.3c-2.18,1.24-2.94,4.01-1.7,6.19c0.84,1.47,2.37,2.3,3.95,2.3c0.76,0,1.53-0.19,2.24-0.6
	c9.5-5.41,17.58-12.56,24.02-21.26c5.12-6.93,9.21-14.83,12.15-23.49C426.74,152.46,426.86,140.47,426.86,139.98"/>
</svg>
